<svg xmlns="http://www.w3.org/2000/svg" width="1200" height="630" viewBox="0 0 1200 630" role="img" aria-label="Psychometric Tools social preview">
  <defs>
    <linearGradient id="bg" x1="0" y1="0" x2="1" y2="1">
      <stop offset="0%" stop-color="#0b0f14"/>
      <stop offset="100%" stop-color="#0d1117"/>
    </linearGradient>
  </defs>

  <rect width="1200" height="630" fill="url(#bg)"/>
  <rect x="68" y="58" width="1064" height="514" rx="22" fill="#161b22" stroke="#30363d"/>

  <text x="112" y="156" fill="#58a6ff" font-size="70" font-family="Segoe UI, Arial, sans-serif" font-weight="700">Psychometric Tools</text>
  <text x="112" y="210" fill="#e6edf3" font-size="45" font-family="Segoe UI, Arial, sans-serif">Psychometric and ML variance web tools</text>

  <rect x="112" y="264" width="300" height="252" rx="12" fill="#0f1725" stroke="#30363d"/>
  <rect x="450" y="264" width="300" height="252" rx="12" fill="#0f1725" stroke="#30363d"/>
  <rect x="788" y="264" width="300" height="252" rx="12" fill="#0f1725" stroke="#30363d"/>

  <line x1="142" y1="432" x2="382" y2="432" stroke="#58a6ff" stroke-width="12" stroke-linecap="round"/>
  <line x1="142" y1="466" x2="352" y2="466" stroke="#3fb950" stroke-width="12" stroke-linecap="round"/>
  <text x="142" y="320" fill="#e6edf3" font-size="28" font-family="Segoe UI, Arial, sans-serif" font-weight="700">C-NRSBTool</text>

  <path d="M 476 458 C 530 458, 552 326, 602 326 C 652 326, 674 458, 728 458" fill="none" stroke="#58a6ff" stroke-width="8" stroke-linecap="round"/>
  <path d="M 492 458 C 542 458, 562 372, 602 372 C 642 372, 662 458, 708 458" fill="none" stroke="#d29922" stroke-width="8" stroke-linecap="round" stroke-dasharray="14 10"/>
  <text x="480" y="320" fill="#e6edf3" font-size="28" font-family="Segoe UI, Arial, sans-serif" font-weight="700">DIF-AccumulationTool</text>

  <line x1="834" y1="470" x2="834" y2="418" stroke="#3fb950" stroke-width="8"/>
  <line x1="938" y1="470" x2="938" y2="352" stroke="#58a6ff" stroke-width="8"/>
  <path d="M 820 470 C 858 470, 886 320, 916 320 C 946 320, 972 470, 1022 470" fill="none" stroke="#58a6ff" stroke-width="8" stroke-linecap="round"/>
  <text x="818" y="320" fill="#e6edf3" font-size="28" font-family="Segoe UI, Arial, sans-serif" font-weight="700">Replication and Comparison</text>
</svg>
