<svg xmlns="http://www.w3.org/2000/svg" width="1200" height="630" viewBox="0 0 1200 630" role="img" aria-label="Psychometric Tools social preview">
  <defs>
    <linearGradient id="bg" x1="0" y1="0" x2="1" y2="1">
      <stop offset="0%" stop-color="#0b0f14"/>
      <stop offset="100%" stop-color="#0d1117"/>
    </linearGradient>
    <!-- DIF-AccumulationTool crossing-clip: split card 2 at its midpoint x=599 -->
    <clipPath id="dif-left">
      <rect x="446" y="264" width="153" height="284"/>
    </clipPath>
    <clipPath id="dif-right">
      <rect x="599" y="264" width="153" height="284"/>
    </clipPath>
  </defs>

  <!-- Background -->
  <rect width="1200" height="630" fill="url(#bg)"/>
  <rect x="68" y="58" width="1064" height="514" rx="22" fill="#161b22" stroke="#30363d"/>

  <!-- Title + subtitle -->
  <text x="112" y="156" fill="#58a6ff" font-size="70" font-family="Segoe UI, Arial, sans-serif" font-weight="700">Psychometric Tools</text>
  <text x="112" y="210" fill="#e6edf3" font-size="45" font-family="Segoe UI, Arial, sans-serif">Psychometric tools for research and analysis</text>

  <!-- ── Card 1: C-NRSBTool (x=120, w=306) ──────────────────────────── -->
  <rect x="120" y="264" width="306" height="284" rx="12" fill="#0f1725" stroke="#30363d"/>
  <!--
    3 bars scaled from original 460px card (×0.665):
    blue  278px → 185px, yellow 339px → 225px, green 380px → 253px
    left margin: 42×0.665 = 28px → bars start at x=148
  -->
  <line x1="148" y1="336" x2="333" y2="336" stroke="#58a6ff" stroke-width="22" stroke-linecap="round"/>
  <line x1="148" y1="406" x2="373" y2="406" stroke="#d29922" stroke-width="22" stroke-linecap="round"/>
  <line x1="148" y1="476" x2="401" y2="476" stroke="#3fb950" stroke-width="22" stroke-linecap="round"/>

  <!-- ── Card 2: DIF-AccumulationTool (x=446, w=306) ───────────────── -->
  <rect x="446" y="264" width="306" height="284" rx="12" fill="#0f1725" stroke="#30363d"/>
  <!--
    ICC curves: y=491 (bottom) → y=321 (top), 57px margins → 60% fill matching DIF-AccumulationTool.
    sigLeft:  M 473 491 L 501 491 C 580 491, 580 321, 638 321 L 725 321
    sigRight: M 473 491 L 560 491 C 618 491, 618 321, 677 321 L 725 321
  -->
  <!-- left half -->
  <path d="M 473 491 L 560 491 C 618 491, 618 321, 677 321 L 725 321"
        fill="none" stroke="#d29922" stroke-width="6" stroke-linecap="round"
        stroke-dasharray="10 7" clip-path="url(#dif-left)"/>
  <path d="M 473 491 L 501 491 C 580 491, 580 321, 638 321 L 725 321"
        fill="none" stroke="#58a6ff" stroke-width="6" stroke-linecap="round"
        clip-path="url(#dif-left)"/>
  <!-- right half -->
  <path d="M 473 491 L 501 491 C 580 491, 580 321, 638 321 L 725 321"
        fill="none" stroke="#58a6ff" stroke-width="6" stroke-linecap="round"
        clip-path="url(#dif-right)"/>
  <path d="M 473 491 L 560 491 C 618 491, 618 321, 677 321 L 725 321"
        fill="none" stroke="#d29922" stroke-width="6" stroke-linecap="round"
        stroke-dasharray="10 7" clip-path="url(#dif-right)"/>

  <!-- ── Card 3: DIF-AnalysisTool (x=772, w=306) ──────────────────── -->
  <rect x="772" y="264" width="306" height="284" rx="12" fill="#0f1725" stroke="#30363d"/>
  <!--
    Lollipop forest-plot: bars from center (x=925).
    Short = no DIF (blue), long = DIF (red).
  -->
  <line x1="925" y1="272" x2="925" y2="526" stroke="#3d4d5c" stroke-width="1.5" stroke-dasharray="5 4"/>
  <line x1="925" y1="292" x2="963" y2="292" stroke="#58a6ff" stroke-width="18" stroke-linecap="round"/>
  <line x1="925" y1="350" x2="1042" y2="350" stroke="#f85149" stroke-width="18" stroke-linecap="round"/>
  <line x1="890" y1="408" x2="925" y2="408" stroke="#58a6ff" stroke-width="18" stroke-linecap="round"/>
  <line x1="816" y1="466" x2="925" y2="466" stroke="#f85149" stroke-width="18" stroke-linecap="round"/>
  <line x1="925" y1="516" x2="956" y2="516" stroke="#8b949e" stroke-width="14" stroke-linecap="round"/>
</svg>
