<svg xmlns="http://www.w3.org/2000/svg" width="1200" height="630" viewBox="0 0 1200 630" role="img" aria-label="DIF-AnalysisTool light preview">
  <defs>
    <linearGradient id="bg" x1="0" y1="0" x2="1" y2="1">
      <stop offset="0%" stop-color="#f0f4f8"/>
      <stop offset="100%" stop-color="#e8edf3"/>
    </linearGradient>
  </defs>

  <rect width="1200" height="630" fill="url(#bg)"/>
  <rect x="68" y="58" width="1064" height="514" rx="22" fill="#ffffff" stroke="#d0d7de"/>

  <text x="112" y="156" fill="#0969da" font-size="68" font-family="Segoe UI, Arial, sans-serif" font-weight="700">DIF-AnalysisTool</text>
  <text x="112" y="210" fill="#1f2328" font-size="40" font-family="Segoe UI, Arial, sans-serif">Mantel-Haenszel · TSW likelihood ratio · IRT</text>

  <!-- Panel 1: no DIF -->
  <rect x="112" y="264" width="290" height="252" rx="12" fill="#f6f8fa" stroke="#d0d7de"/>
  <text x="257" y="298" fill="#57606a" font-size="15" font-family="Segoe UI, Arial, sans-serif" text-anchor="middle">No DIF</text>
  <path d="M 130 480 C 160 480, 180 370, 210 350 C 240 330, 260 300, 385 295"
        fill="none" stroke="#0969da" stroke-width="3.5" stroke-linecap="round"/>
  <path d="M 130 480 C 160 480, 183 368, 213 348 C 243 328, 263 298, 385 293"
        fill="none" stroke="#bf8700" stroke-width="3.5" stroke-linecap="round" stroke-dasharray="9 7"/>

  <!-- Panel 2: DIF -->
  <rect x="455" y="264" width="290" height="252" rx="12" fill="#f6f8fa" stroke="#d0d7de"/>
  <text x="600" y="298" fill="#cf222e" font-size="15" font-family="Segoe UI, Arial, sans-serif" text-anchor="middle">DIF detected</text>
  <path d="M 472 480 C 510 480, 535 390, 560 360 C 585 330, 610 300, 735 295"
        fill="none" stroke="#0969da" stroke-width="3.5" stroke-linecap="round"/>
  <path d="M 472 480 C 510 480, 548 430, 573 400 C 598 370, 640 330, 735 320"
        fill="none" stroke="#bf8700" stroke-width="3.5" stroke-linecap="round" stroke-dasharray="9 7"/>
  <line x1="600" y1="275" x2="600" y2="508" stroke="#cf222e" stroke-width="1.5" stroke-dasharray="5 4" opacity="0.5"/>

  <!-- Panel 3: table -->
  <rect x="798" y="264" width="290" height="252" rx="12" fill="#f6f8fa" stroke="#d0d7de"/>
  <text x="943" y="298" fill="#57606a" font-size="15" font-family="Segoe UI, Arial, sans-serif" text-anchor="middle">MH · TSW Results</text>
  <rect x="818" y="312" width="250" height="22" rx="4" fill="#eaeef2"/>
  <text x="830" y="328" fill="#0969da" font-size="12" font-family="Segoe UI, Arial, sans-serif" font-weight="600">Item</text>
  <text x="890" y="328" fill="#0969da" font-size="12" font-family="Segoe UI, Arial, sans-serif" font-weight="600">OR</text>
  <text x="940" y="328" fill="#0969da" font-size="12" font-family="Segoe UI, Arial, sans-serif" font-weight="600">p-adj</text>
  <text x="1004" y="328" fill="#0969da" font-size="12" font-family="Segoe UI, Arial, sans-serif" font-weight="600">SIDS</text>

  <text x="830" y="353" fill="#1f2328" font-size="12" font-family="Segoe UI, Arial, sans-serif">R1</text>
  <text x="886" y="353" fill="#1a7f37" font-size="12" font-family="Segoe UI, Arial, sans-serif">1.04</text>
  <text x="936" y="353" fill="#1a7f37" font-size="12" font-family="Segoe UI, Arial, sans-serif">0.74</text>
  <text x="1001" y="353" fill="#1a7f37" font-size="12" font-family="Segoe UI, Arial, sans-serif">0.02</text>

  <text x="830" y="375" fill="#1f2328" font-size="12" font-family="Segoe UI, Arial, sans-serif">R2</text>
  <text x="882" y="375" fill="#cf222e" font-size="12" font-family="Segoe UI, Arial, sans-serif">1.41</text>
  <text x="932" y="375" fill="#cf222e" font-size="12" font-family="Segoe UI, Arial, sans-serif">0.001</text>
  <text x="997" y="375" fill="#cf222e" font-size="12" font-family="Segoe UI, Arial, sans-serif">-0.18</text>
  <rect x="818" y="381" width="250" height="22" rx="4" fill="#ffd7d5" opacity="0.5"/>

  <text x="830" y="397" fill="#1f2328" font-size="12" font-family="Segoe UI, Arial, sans-serif">R3</text>
  <text x="886" y="397" fill="#1a7f37" font-size="12" font-family="Segoe UI, Arial, sans-serif">0.97</text>
  <text x="936" y="397" fill="#1a7f37" font-size="12" font-family="Segoe UI, Arial, sans-serif">0.91</text>
  <text x="1001" y="397" fill="#1a7f37" font-size="12" font-family="Segoe UI, Arial, sans-serif">-0.01</text>

  <text x="830" y="419" fill="#1f2328" font-size="12" font-family="Segoe UI, Arial, sans-serif">R4</text>
  <text x="882" y="419" fill="#cf222e" font-size="12" font-family="Segoe UI, Arial, sans-serif">1.28</text>
  <text x="932" y="419" fill="#cf222e" font-size="12" font-family="Segoe UI, Arial, sans-serif">0.012</text>
  <text x="1001" y="419" fill="#cf222e" font-size="12" font-family="Segoe UI, Arial, sans-serif"> 0.11</text>
  <rect x="818" y="425" width="250" height="22" rx="4" fill="#ffd7d5" opacity="0.5"/>

  <!-- Legend -->
  <line x1="112" y1="548" x2="140" y2="548" stroke="#0969da" stroke-width="2.5" stroke-linecap="round"/>
  <text x="148" y="553" fill="#57606a" font-size="18" font-family="Segoe UI, Arial, sans-serif">Reference group</text>
  <line x1="340" y1="548" x2="368" y2="548" stroke="#bf8700" stroke-width="2.5" stroke-linecap="round" stroke-dasharray="7 5"/>
  <text x="376" y="553" fill="#57606a" font-size="18" font-family="Segoe UI, Arial, sans-serif">Focal group</text>
</svg>
